{
  "accessors": [
    {
      "bufferView": 2,
      "componentType": 5126,
      "count": 65532,
      "max": [
        669.0994262695313,
        219.7017364501953,
        41.909996032714844
      ],
      "min": [
        -669.0994262695313,
        1.613729546079412e-05,
        -41.910003662109375
      ],
      "type": "VEC3"
    },
    {
      "bufferView": 2,
      "byteOffset": 786384,
      "componentType": 5126,
      "count": 65532,
      "max": [
        1.0,
        1.0,
        1.0
      ],
      "min": [
        -1.0,
        -1.0,
        -1.0
      ],
      "type": "VEC3"
    },
    {
      "bufferView": 1,
      "componentType": 5126,
      "count": 65532,
      "max": [
        3.8454971313476563,
        -0.6870214939117432
      ],
      "min": [
        -2.8454971313476563,
        -1.7855300903320313
      ],
      "type": "VEC2"
    },
    {
      "bufferView": 1,
      "byteOffset": 524256,
      "componentType": 5126,
      "count": 65532,
      "max": [
        1.2474734783172607,
        1.4642236232757568
      ],
      "min": [
        -0.18099646270275116,
        -0.1412336826324463
      ],
      "type": "VEC2"
    },
    {
      "bufferView": 0,
      "componentType": 5125,
      "count": 169173,
      "type": "SCALAR"
    },
    {
      "bufferView": 2,
      "byteOffset": 1572768,
      "componentType": 5126,
      "count": 65532,
      "max": [
        686.0926513671875,
        685.6842651367188,
        39.959999084472656
      ],
      "min": [
        -685.7999877929688,
        2.553614616394043,
        -39.959999084472656
      ],
      "type": "VEC3"
    },
    {
      "bufferView": 2,
      "byteOffset": 2359152,
      "componentType": 5126,
      "count": 65532,
      "max": [
        1.0,
        1.0,
        1.0
      ],
      "min": [
        -1.0,
        -1.0,
        -1.0
      ],
      "type": "VEC3"
    },
    {
      "bufferView": 1,
      "byteOffset": 1048512,
      "componentType": 5126,
      "count": 65532,
      "max": [
        3.9304630756378174,
        1.6428909301757813
      ],
      "min": [
        -2.928999900817871,
        -1.7727622985839844
      ],
      "type": "VEC2"
    },
    {
      "bufferView": 1,
      "byteOffset": 1572768,
      "componentType": 5126,
      "count": 65532,
      "max": [
        1.2474734783172607,
        1.4642236232757568
      ],
      "min": [
        -0.18099646270275116,
        -0.1412336826324463
      ],
      "type": "VEC2"
    },
    {
      "bufferView": 0,
      "byteOffset": 676692,
      "componentType": 5125,
      "count": 163833,
      "type": "SCALAR"
    },
    {
      "bufferView": 2,
      "byteOffset": 3145536,
      "componentType": 5126,
      "count": 16236,
      "max": [
        9.22805118560791,
        162.4570770263672,
        -32.37311935424805
      ],
      "min": [
        -24.069711685180664,
        153.2125244140625,
        -36.20688247680664
      ],
      "type": "VEC3"
    },
    {
      "bufferView": 2,
      "byteOffset": 3340368,
      "componentType": 5126,
      "count": 16236,
      "max": [
        0.9986023902893066,
        0.9994780421257019,
        0.9992391467094421
      ],
      "min": [
        -0.9986026287078857,
        -0.99947190284729,
        -0.9992368817329407
      ],
      "type": "VEC3"
    },
    {
      "bufferView": 1,
      "byteOffset": 2097024,
      "componentType": 5126,
      "count": 16236,
      "max": [
        0.5461402535438538,
        -0.9732449054718018
      ],
      "min": [
        0.3796514570713043,
        -1.0194673538208008
      ],
      "type": "VEC2"
    },
    {
      "bufferView": 1,
      "byteOffset": 2226912,
      "componentType": 5126,
      "count": 16236,
      "max": [
        1.2474734783172607,
        1.4642236232757568
      ],
      "min": [
        -0.18099646270275116,
        -0.1412336826324463
      ],
      "type": "VEC2"
    },
    {
      "bufferView": 0,
      "byteOffset": 1332024,
      "componentType": 5125,
      "count": 40590,
      "type": "SCALAR"
    },
    {
      "bufferView": 2,
      "byteOffset": 3535200,
      "componentType": 5126,
      "count": 24,
      "max": [
        685.7999877929688,
        685.7060546875,
        30.657745361328125
      ],
      "min": [
        -685.7999877929688,
        228.5060577392578,
        28.117746353149414
      ],
      "type": "VEC3"
    },
    {
      "bufferView": 2,
      "byteOffset": 3535488,
      "componentType": 5126,
      "count": 24,
      "max": [
        1.0,
        1.0,
        1.0
      ],
      "min": [
        -1.0,
        -1.0,
        -1.0
      ],
      "type": "VEC3"
    },
    {
      "bufferView": 1,
      "byteOffset": 2356800,
      "componentType": 5126,
      "count": 24,
      "max": [
        3.928999900817871,
        1.6430000066757202
      ],
      "min": [
        -2.928999900817871,
        -0.6429998874664307
      ],
      "type": "VEC2"
    },
    {
      "bufferView": 1,
      "byteOffset": 2356992,
      "componentType": 5126,
      "count": 24,
      "max": [
        1.0,
        1.0
      ],
      "min": [
        0.0,
        0.0
      ],
      "type": "VEC2"
    },
    {
      "bufferView": 0,
      "byteOffset": 1494384,
      "componentType": 5125,
      "count": 36,
      "type": "SCALAR"
    }
  ],
  "asset": {
    "extras": {
      "author": "Cregan Max (https://sketchfab.com/creativeganad)",
      "license": "CC-BY-4.0 (http://creativecommons.org/licenses/by/4.0/)",
      "source": "https://sketchfab.com/3d-models/45x15-billboard-short-d1e59f554f4d41169c491426bc11e375",
      "title": "45'x15' Billboard (Short)"
    },
    "generator": "Sketchfab-15.36.0",
    "version": "2.0"
  },
  "bufferViews": [
    {
      "buffer": 0,
      "byteLength": 1494528,
      "name": "floatBufferViews",
      "target": 34963
    },
    {
      "buffer": 0,
      "byteLength": 2357184,
      "byteOffset": 1494528,
      "byteStride": 8,
      "name": "floatBufferViews",
      "target": 34962
    },
    {
      "buffer": 0,
      "byteLength": 3535776,
      "byteOffset": 3851712,
      "byteStride": 12,
      "name": "floatBufferViews",
      "target": 34962
    }
  ],
  "buffers": [
    {
      "byteLength": 7387488,
      "uri": "scene.bin"
    }
  ],
  "images": [
    {
      "uri": "textures/45_x_15_emissive.jpeg"
    }
  ],
  "materials": [
    {
      "doubleSided": true,
      "emissiveFactor": [
        0.27,
        0.27,
        0.27
      ],
      "name": "Mat.14",
      "pbrMetallicRoughness": {
        "metallicFactor": 0.0,
        "roughnessFactor": 0.6915578076488026
      }
    },
    {
      "doubleSided": true,
      "emissiveFactor": [
        1.0,
        1.0,
        1.0
      ],
      "emissiveTexture": {
        "index": 0
      },
      "name": "45_x_15",
      "pbrMetallicRoughness": {
        "baseColorFactor": [
          0.0,
          0.0,
          0.0,
          1.0
        ],
        "metallicFactor": 0.0,
        "roughnessFactor": 0.6
      }
    }
  ],
  "meshes": [
    {
      "name": "Billboard_Mat.14_1",
      "primitives": [
        {
          "attributes": {
            "NORMAL": 1,
            "POSITION": 0,
            "TEXCOORD_0": 2,
            "TEXCOORD_1": 3
          },
          "indices": 4,
          "material": 0,
          "mode": 4
        }
      ]
    },
    {
      "name": "Billboard_Mat.14_1",
      "primitives": [
        {
          "attributes": {
            "NORMAL": 6,
            "POSITION": 5,
            "TEXCOORD_0": 7,
            "TEXCOORD_1": 8
          },
          "indices": 9,
          "material": 0,
          "mode": 4
        }
      ]
    },
    {
      "name": "Billboard_Mat.14_1",
      "primitives": [
        {
          "attributes": {
            "NORMAL": 11,
            "POSITION": 10,
            "TEXCOORD_0": 12,
            "TEXCOORD_1": 13
          },
          "indices": 14,
          "material": 0,
          "mode": 4
        }
      ]
    },
    {
      "name": "Billboard_45' x 15'_0",
      "primitives": [
        {
          "attributes": {
            "NORMAL": 16,
            "POSITION": 15,
            "TEXCOORD_0": 17,
            "TEXCOORD_1": 18
          },
          "indices": 19,
          "material": 1,
          "mode": 4
        }
      ]
    }
  ],
  "nodes": [
    {
      "children": [
        1
      ],
      "matrix": [
        2.0,
        0.0,
        0.0,
        0.0,
        0.0,
        0.0,
        -1.0,
        0.0,
        0.0,
        1.0,
        0.0,
        0.0,
        0.0,
        0.0,
        0.0,
        1.0
      ],
      "name": "Sketchfab_model"
    },
    {
      "children": [
        2
      ],
      "matrix": [
        0.009999999776482582,
        0.0,
        0.0,
        0.0,
        0.0,
        0.0,
        0.009999999776482582,
        0.0,
        0.0,
        -0.009999999776482582,
        0.0,
        0.0,
        0.0,
        0.0,
        0.0,
        1.0
      ],
      "name": "0b15228fd2994243bff58683a5ebf963.fbx"
    },
    {
      "children": [
        3
      ],
      "name": "RootNode"
    },
    {
      "children": [
        4,
        5,
        6,
        7
      ],
      "name": "Billboard"
    },
    {
      "mesh": 0,
      "name": "Billboard_Mat.14_1"
    },
    {
      "mesh": 1,
      "name": "Billboard_Mat.14_1"
    },
    {
      "mesh": 2,
      "name": "Billboard_Mat.14_1"
    },
    {
      "mesh": 3,
      "name": "Billboard_45' x 15'_0"
    }
  ],
  "samplers": [
    {
      "magFilter": 9729,
      "minFilter": 9987,
      "wrapS": 33071,
      "wrapT": 33071
    }
  ],
  "scene": 0,
  "scenes": [
    {
      "name": "Sketchfab_Scene",
      "nodes": [
        0
      ]
    }
  ],
  "textures": [
    {
      "sampler": 0,
      "source": 0
    }
  ]
}
